<svg width="21" height="20" viewBox="0 0 21 20" fill="none" xmlns="http://www.w3.org/2000/svg">
<path d="M2.44153 10.1535H2.29153H0.501534C0.183977 10.1535 0.0343935 10.5312 0.255904 10.7458L0.257807 10.7476L0.25779 10.7476L3.0476 13.5474C3.04764 13.5475 3.04767 13.5475 3.04771 13.5475C3.1891 13.6888 3.40397 13.6888 3.54536 13.5475C3.54539 13.5475 3.54543 13.5475 3.54547 13.5474L6.33441 10.7485C6.33454 10.7484 6.33467 10.7482 6.3348 10.7481C6.38296 10.6988 6.4155 10.6364 6.42834 10.5687C6.44122 10.5008 6.43371 10.4306 6.40676 10.367C6.37981 10.3034 6.33463 10.2491 6.27691 10.2111C6.21919 10.1731 6.15152 10.1531 6.08242 10.1535L6.08153 10.1535L4.29153 10.1535H4.14153V10.0035C4.14153 6.0199 7.38986 2.80244 11.3934 2.8535L11.3936 2.8535C15.1948 2.9046 18.3904 6.10021 18.4415 9.90147L18.4415 9.90157C18.4926 13.895 15.2753 17.1535 11.2915 17.1535C9.64689 17.1535 8.12438 16.5915 6.91868 15.6413M2.44153 10.1535L7.01153 15.5235M2.44153 10.1535V10.0035C2.44153 5.03769 6.54209 1.01578 11.5474 1.15343L2.44153 10.1535ZM6.91868 15.6413L7.01153 15.5235M6.91868 15.6413C6.91869 15.6413 6.9187 15.6413 6.91871 15.6413L7.01153 15.5235M6.91868 15.6413C6.75606 15.5132 6.55202 15.4493 6.34538 15.4619C6.13872 15.4744 5.94388 15.5624 5.79791 15.7092L5.7976 15.7096C5.43827 16.0689 5.46854 16.6725 5.86275 16.9744L5.86458 16.9758C7.4091 18.1973 9.32199 18.8591 11.2911 18.8535L11.2915 18.8535C16.2573 18.8535 20.2792 14.7529 20.1416 9.74765M7.01153 15.5235C6.82 15.3726 6.57968 15.2974 6.3363 15.3121C6.09292 15.3269 5.86345 15.4306 5.69153 15.6035C5.27153 16.0235 5.30153 16.7335 5.77153 17.0935C7.34266 18.336 9.28851 19.0092 11.2915 19.0035C16.3415 19.0035 20.4315 14.8335 20.2915 9.74349M20.1416 9.74765L20.2915 9.74349M20.1416 9.74765C20.1416 9.74764 20.1416 9.74762 20.1416 9.74761L20.2915 9.74349M20.1416 9.74765C20.0138 5.13724 16.1578 1.28125 11.5474 1.15343L11.5515 1.00349C16.2415 1.13349 20.1615 5.05349 20.2915 9.74349M4.29153 10.0035C4.29153 9.95337 4.29206 9.90336 4.29311 9.85349H4.29153V10.0035ZM11.6415 10.1435V10.2289L11.715 10.2725L14.5944 11.9821C14.5944 11.9822 14.5945 11.9822 14.5946 11.9823C14.8734 12.1497 14.9706 12.5179 14.8024 12.8071C14.6347 13.0856 14.2666 13.1825 13.9775 13.0142C13.9774 13.0141 13.9773 13.014 13.9771 13.0139L10.8587 11.1649C10.8586 11.1648 10.8585 11.1647 10.8584 11.1647C10.603 11.0112 10.4415 10.7298 10.4415 10.4335V6.75349C10.4415 6.42633 10.7144 6.15349 11.0415 6.15349C11.37 6.15349 11.6415 6.42763 11.6415 6.74349V10.1435Z" fill="white" stroke="#202125" stroke-width="0.3"/>
</svg>
