<svg width="32" height="32" viewBox="0 0 32 32" fill="none" xmlns="http://www.w3.org/2000/svg">
<path fill-rule="evenodd" clip-rule="evenodd" d="M21.6571 3.40897C23.4967 3.294 25.3108 3.93273 26.6777 5.18466C27.9296 6.55156 28.5683 8.36558 28.4661 10.2179V22.1495C28.5811 24.0019 27.9296 25.8159 26.6904 27.1828C25.3235 28.4347 23.4967 29.0735 21.6571 28.9585H9.72542C7.87306 29.0735 6.05903 28.4347 4.69212 27.1828C3.44018 25.8159 2.80144 24.0019 2.91642 22.1495V10.2179C2.80144 8.36558 3.44018 6.55156 4.69212 5.18466C6.05903 3.93273 7.87306 3.294 9.72542 3.40897H21.6571ZM14.3883 22.3795L22.9857 13.7565C23.765 12.9645 23.765 11.687 22.9857 10.9077L21.325 9.247C20.533 8.45497 19.2555 8.45497 18.4634 9.247L17.6075 10.1157C17.4798 10.2434 17.4798 10.4606 17.6075 10.5884C17.6075 10.5884 19.6387 12.6068 19.677 12.6579C19.8176 12.8112 19.907 13.0156 19.907 13.2455C19.907 13.7054 19.5365 14.0886 19.0639 14.0886C18.8467 14.0886 18.6423 13.9992 18.5018 13.8587L16.3684 11.7381C16.2662 11.6359 16.0873 11.6359 15.9851 11.7381L9.8915 17.8316C9.46993 18.2532 9.22721 18.8153 9.21443 19.4157L9.13778 22.4433C9.13778 22.6094 9.18888 22.7627 9.30386 22.8777C9.41883 22.9926 9.57213 23.0565 9.7382 23.0565H12.7403C13.3535 23.0565 13.9411 22.8138 14.3883 22.3795Z" fill="#EEE364"/>
</svg>
