<svg width="20" height="20" viewBox="0 0 20 20" fill="none" xmlns="http://www.w3.org/2000/svg">
<path d="M4.39086 8.12501C4.38982 7.38377 4.53551 6.64965 4.81952 5.96497C5.10352 5.2803 5.52024 4.6586 6.04563 4.13573C6.57103 3.61285 7.19473 3.19914 7.88076 2.91843C8.5668 2.63772 9.30161 2.49557 10.0428 2.50017C13.1358 2.52316 15.6098 5.09402 15.6098 8.19563V8.75001C15.6098 11.5481 16.1952 13.1718 16.7108 14.0592C16.7663 14.1541 16.7959 14.2619 16.7965 14.3718C16.797 14.4816 16.7686 14.5897 16.7141 14.6852C16.6596 14.7806 16.5809 14.8599 16.4859 14.9152C16.3909 14.9705 16.283 14.9997 16.1731 15H3.82684C3.71694 14.9997 3.60905 14.9705 3.51406 14.9152C3.41908 14.8599 3.34035 14.7805 3.28583 14.6851C3.23131 14.5897 3.20292 14.4815 3.20353 14.3716C3.20414 14.2617 3.23372 14.1539 3.28929 14.0591C3.80517 13.1716 4.39085 11.548 4.39085 8.75001L4.39086 8.12501Z" stroke="white" stroke-linecap="round" stroke-linejoin="round"/>
<path d="M7.5 15V15.625C7.5 16.288 7.76339 16.9239 8.23223 17.3928C8.70107 17.8616 9.33696 18.125 10 18.125C10.663 18.125 11.2989 17.8616 11.7678 17.3928C12.2366 16.9239 12.5 16.288 12.5 15.625V15" stroke="white" stroke-linecap="round" stroke-linejoin="round"/>
</svg>
