<svg width="21" height="21" viewBox="0 0 21 21" fill="none" xmlns="http://www.w3.org/2000/svg">
<path fill-rule="evenodd" clip-rule="evenodd" d="M8.43296 13.4869C8.95336 13.8397 9.58759 14.053 10.2625 14.053C12.0513 14.053 13.5068 12.5845 13.5068 10.7795C13.5068 10.0986 13.2954 9.45864 12.9458 8.93357L12.0595 9.82783C12.2058 10.1068 12.2871 10.4349 12.2871 10.7795C12.2871 11.9035 11.3764 12.8224 10.2625 12.8224C9.92096 12.8224 9.59572 12.7403 9.31926 12.5927L8.43296 13.4869ZM15.6209 6.23438C16.7999 7.31734 17.8001 8.77769 18.5481 10.5334C18.6132 10.6893 18.6132 10.8698 18.5481 11.0174C16.8081 15.1032 13.7101 17.548 10.2625 17.548H10.2543C8.68503 17.548 7.18077 17.0312 5.85539 16.0877L4.27794 17.6793C4.15598 17.8024 4.00149 17.8598 3.84699 17.8598C3.6925 17.8598 3.52988 17.8024 3.41604 17.6793C3.21276 17.4742 3.18024 17.146 3.34286 16.9081L3.36726 16.8753L15.3932 4.74121C15.4095 4.7248 15.4258 4.70839 15.4339 4.69198L15.4339 4.69198C15.4502 4.67557 15.4664 4.65916 15.4745 4.64276L16.2389 3.87156C16.4828 3.63363 16.865 3.63363 17.1008 3.87156C17.3447 4.10948 17.3447 4.50328 17.1008 4.74121L15.6209 6.23438ZM7.01221 10.7827C7.01221 10.996 7.0366 11.2093 7.06913 11.4062L4.0606 14.4418C3.24748 13.4901 2.54007 12.3415 1.97902 11.0206C1.91397 10.873 1.91397 10.6925 1.97902 10.5366C3.71909 6.45089 6.81706 4.01423 10.2565 4.01423H10.2647C11.4274 4.01423 12.5577 4.29317 13.5984 4.81824L10.8826 7.55846C10.6875 7.52564 10.4761 7.50103 10.2647 7.50103C8.46768 7.50103 7.01221 8.96959 7.01221 10.7827Z" fill="#9E9E9E"/>
</svg>
